<svg width="242" height="60" viewBox="0 0 242 60" fill="none" xmlns="http://www.w3.org/2000/svg">
<rect width="242" height="60" rx="5" fill="url(#paint0_linear_9860_14)"/>
<path d="M32 36L42.38 30L32 24V36ZM55.12 20.34C55.38 21.28 55.56 22.54 55.68 24.14C55.82 25.74 55.88 27.12 55.88 28.32L56 30C56 34.38 55.68 37.6 55.12 39.66C54.62 41.46 53.46 42.62 51.66 43.12C50.72 43.38 49 43.56 46.36 43.68C43.76 43.82 41.38 43.88 39.18 43.88L36 44C27.62 44 22.4 43.68 20.34 43.12C18.54 42.62 17.38 41.46 16.88 39.66C16.62 38.72 16.44 37.46 16.32 35.86C16.18 34.26 16.12 32.88 16.12 31.68L16 30C16 25.62 16.32 22.4 16.88 20.34C17.38 18.54 18.54 17.38 20.34 16.88C21.28 16.62 23 16.44 25.64 16.32C28.24 16.18 30.62 16.12 32.82 16.12L36 16C44.38 16 49.6 16.32 51.66 16.88C53.46 17.38 54.62 18.54 55.12 20.34Z" fill="white"/>
<path d="M72.5455 18.7273H79.5909L84.1364 28.1818H84.3182L88.8636 18.7273H95.9091L87.3636 34.6818V42H81.0909V34.6818L72.5455 18.7273ZM118.889 30.3636C118.889 32.9545 118.385 35.1402 117.378 36.9205C116.37 38.6932 115.01 40.0379 113.298 40.9545C111.586 41.8636 109.677 42.3182 107.571 42.3182C105.45 42.3182 103.533 41.8598 101.821 40.9432C100.116 40.0189 98.7604 38.6705 97.7528 36.8977C96.7528 35.1174 96.2528 32.9394 96.2528 30.3636C96.2528 27.7727 96.7528 25.5909 97.7528 23.8182C98.7604 22.0379 100.116 20.6932 101.821 19.7841C103.533 18.8674 105.45 18.4091 107.571 18.4091C109.677 18.4091 111.586 18.8674 113.298 19.7841C115.01 20.6932 116.37 22.0379 117.378 23.8182C118.385 25.5909 118.889 27.7727 118.889 30.3636ZM112.389 30.3636C112.389 28.9697 112.204 27.7955 111.832 26.8409C111.469 25.8788 110.927 25.1515 110.207 24.6591C109.495 24.1591 108.616 23.9091 107.571 23.9091C106.526 23.9091 105.643 24.1591 104.923 24.6591C104.211 25.1515 103.67 25.8788 103.298 26.8409C102.935 27.7955 102.753 28.9697 102.753 30.3636C102.753 31.7576 102.935 32.9356 103.298 33.8977C103.67 34.8523 104.211 35.5795 104.923 36.0795C105.643 36.572 106.526 36.8182 107.571 36.8182C108.616 36.8182 109.495 36.572 110.207 36.0795C110.927 35.5795 111.469 34.8523 111.832 33.8977C112.204 32.9356 112.389 31.7576 112.389 30.3636ZM135.585 18.7273H141.903V33.6364C141.903 35.4091 141.479 36.9432 140.631 38.2386C139.79 39.5265 138.616 40.5227 137.108 41.2273C135.6 41.9242 133.85 42.2727 131.858 42.2727C129.85 42.2727 128.093 41.9242 126.585 41.2273C125.078 40.5227 123.903 39.5265 123.062 38.2386C122.229 36.9432 121.812 35.4091 121.812 33.6364V18.7273H128.131V33.0909C128.131 33.8106 128.29 34.4545 128.608 35.0227C128.926 35.5833 129.366 36.0227 129.926 36.3409C130.494 36.6591 131.138 36.8182 131.858 36.8182C132.585 36.8182 133.229 36.6591 133.79 36.3409C134.35 36.0227 134.79 35.5833 135.108 35.0227C135.426 34.4545 135.585 33.8106 135.585 33.0909V18.7273ZM144.27 23.8182V18.7273H164.497V23.8182H157.497V42H151.27V23.8182H144.27ZM180.648 18.7273H186.966V33.6364C186.966 35.4091 186.542 36.9432 185.693 38.2386C184.852 39.5265 183.678 40.5227 182.17 41.2273C180.663 41.9242 178.913 42.2727 176.92 42.2727C174.913 42.2727 173.155 41.9242 171.648 41.2273C170.14 40.5227 168.966 39.5265 168.125 38.2386C167.292 36.9432 166.875 35.4091 166.875 33.6364V18.7273H173.193V33.0909C173.193 33.8106 173.352 34.4545 173.67 35.0227C173.989 35.5833 174.428 36.0227 174.989 36.3409C175.557 36.6591 176.201 36.8182 176.92 36.8182C177.648 36.8182 178.292 36.6591 178.852 36.3409C179.413 36.0227 179.852 35.5833 180.17 35.0227C180.489 34.4545 180.648 33.8106 180.648 33.0909V18.7273ZM189.969 42V18.7273H200.06C201.832 18.7273 203.321 18.9659 204.526 19.4432C205.738 19.9205 206.651 20.5947 207.264 21.4659C207.885 22.3371 208.196 23.3636 208.196 24.5455C208.196 25.4015 208.007 26.1818 207.628 26.8864C207.257 27.5909 206.734 28.1818 206.06 28.6591C205.385 29.1288 204.598 29.4545 203.696 29.6364V29.8636C204.696 29.9015 205.605 30.1553 206.423 30.625C207.241 31.0871 207.893 31.7273 208.378 32.5455C208.863 33.3561 209.105 34.3106 209.105 35.4091C209.105 36.6818 208.772 37.8144 208.105 38.8068C207.446 39.7992 206.507 40.5795 205.287 41.1477C204.067 41.7159 202.613 42 200.923 42H189.969ZM196.287 36.9545H199.241C200.302 36.9545 201.098 36.7576 201.628 36.3636C202.158 35.9621 202.423 35.3712 202.423 34.5909C202.423 34.0455 202.298 33.5833 202.048 33.2045C201.798 32.8258 201.442 32.5379 200.98 32.3409C200.526 32.1439 199.976 32.0455 199.332 32.0455H196.287V36.9545ZM196.287 28.1364H198.878C199.431 28.1364 199.92 28.0492 200.344 27.875C200.768 27.7008 201.098 27.4508 201.332 27.125C201.575 26.7917 201.696 26.3864 201.696 25.9091C201.696 25.1894 201.438 24.6402 200.923 24.2614C200.408 23.875 199.757 23.6818 198.969 23.6818H196.287V28.1364ZM211.344 42V18.7273H228.116V23.8182H217.662V27.8182H227.253V32.9091H217.662V36.9091H228.071V42H211.344Z" fill="white"/>
<defs>
<linearGradient id="paint0_linear_9860_14" x1="-1.24297e-06" y1="0.085145" x2="121.808" y2="154.64" gradientUnits="userSpaceOnUse">
<stop stop-color="#2D51CE"/>
<stop offset="1" stop-color="#6F84D3"/>
</linearGradient>
</defs>
</svg>
